<svg xmlns="http://www.w3.org/2000/svg" viewBox="0 0 64 64" width="64" height="64" role="img" aria-label="Jeopardy icon">
  <title>Jeopardy</title>
  <desc>Rounded square with blue/green gradient and a clean white question mark.</desc>
  <defs>
    <linearGradient id="g" x1="0%" y1="0%" x2="100%" y2="0%">
      <stop offset="0%" stop-color="#2ecc71"/>
      <stop offset="50%" stop-color="#3498db"/>
      <stop offset="100%" stop-color="#1abc9c"/>
    </linearGradient>
    <linearGradient id="gloss" x1="0" y1="0" x2="0" y2="1">
      <stop offset="0" stop-color="#ffffff" stop-opacity="0.35"/>
      <stop offset="0.5" stop-color="#ffffff" stop-opacity="0"/>
    </linearGradient>
    <filter id="shadow" x="-20%" y="-20%" width="140%" height="140%">
      <feDropShadow dx="0" dy="2" stdDeviation="2" flood-color="#0f172a" flood-opacity="0.25"/>
    </filter>
  </defs>

  <!-- Background -->
  <rect x="4" y="4" width="56" height="56" rx="14" fill="url(#g)" filter="url(#shadow)"/>
  <!-- Subtle gloss to add depth -->
  <rect x="4" y="4" width="56" height="28" rx="14" fill="url(#gloss)"/>

  <!-- Board hint squares (very subtle) -->
  <g opacity="0.12" fill="#ffffff">
    <rect x="12" y="38" width="6" height="6" rx="1"/>
    <rect x="22" y="38" width="6" height="6" rx="1"/>
    <rect x="32" y="38" width="6" height="6" rx="1"/>
    <rect x="42" y="38" width="6" height="6" rx="1"/>
  </g>

  <!-- Question mark built with strokes for crispness at small sizes -->
  <path d="M20 24c1-6 7-10 12-10 7 0 12 5 12 12 0 6-4 9-9 12-3 2-4 4-4 8" fill="none" stroke="#ffffff" stroke-width="5" stroke-linecap="round" stroke-linejoin="round"/>
  <circle cx="30.5" cy="52" r="3" fill="#ffffff"/>
</svg>
